<svg ns="http://www.w3.org/2000/svg" viewBox="0 0 100 100">
<path d="M86.665 8.055 11.42 8.055C9.885 8.055 8.641 9.3 8.641 10.835L8.641 26.12C8.641 27.655 9.885 28.899 11.42 28.899L46.563 28.899C48.804 28.899 50.124 31.415 48.849 33.258L11.654 87.07C10.38 88.913 11.699 91.429 13.94 91.429L89.236 91.429C90.771 91.429 92.015 90.185 92.015 88.65L92.015 73.365C92.015 71.83 90.771 70.586 89.236 70.586L53.409 70.586C51.158 70.586 49.841 68.049 51.136 66.208L88.938 12.433C90.232 10.592 88.916 8.055 86.665 8.055"/>
</svg>